External Loads File
version=1
nRows=78
nColumns=13
Range=5.000000e-03-10 seconds
endheader
time 	forceRightX 	forceRightY 	forceRightZ 	pointRightX 	pointRightY 	pointRightZ 	forceLeftX 	forceLeftY 	forceLeftZ 	pointLeftX 	pointLeftY 	pointLeftZ 		
5.005000 -71.899661 -67.783092 -0.000000 0.233323 0.475949 -0.101159 281.227991 1163.871609 -0.000000 0.288529 0.150484 -0.337783
5.010000 -76.786963 -56.366536 -0.000000 0.244265 0.479381 -0.100532 301.129682 1106.967859 -0.000000 0.279940 0.147055 -0.337632
5.015000 -79.271511 -42.815363 -0.000000 0.253677 0.482169 -0.101498 309.699274 1043.263678 -0.000000 0.271242 0.144080 -0.337429
5.020000 -79.674713 -26.573720 -0.000000 0.263911 0.484254 -0.101710 314.312228 971.852786 -0.000000 0.262589 0.141655 -0.337389
5.025000 -77.854121 -7.950256 -0.000000 0.274072 0.485689 -0.101910 312.232398 894.625543 -0.000000 0.254024 0.139891 -0.337527
5.030000 -73.876525 12.866433 -0.000000 0.284322 0.486510 -0.101895 304.728719 812.383439 -0.000000 0.245422 0.138984 -0.337524
5.035000 -67.865716 35.369272 -0.000000 0.294301 0.486511 -0.101836 292.112441 726.392685 -0.000000 0.236443 0.138293 -0.336518
5.040000 -60.189663 58.671887 -0.000000 0.304055 0.486102 -0.101912 273.865268 638.504140 -0.000000 0.227802 0.138340 -0.336427
5.045000 -51.269014 81.897661 -0.000000 0.313594 0.485008 -0.101876 251.970390 549.800033 -0.000000 0.219185 0.139070 -0.336296
5.050000 -41.746215 104.042825 -0.000000 0.322492 0.483451 -0.101803 227.192204 462.038417 -0.000000 0.210606 0.140631 -0.336283
5.055000 -32.144322 124.460886 -0.000000 0.331153 0.481639 -0.101755 201.644810 376.334726 -0.000000 0.201961 0.142949 -0.336220
5.060000 -23.050683 142.885407 -0.000000 0.339283 0.479072 -0.101911 176.669413 293.897136 -0.000000 0.193182 0.146233 -0.336097
5.065000 -14.853424 159.592404 -0.000000 0.347231 0.476007 -0.101702 153.443170 215.625698 -0.000000 0.184324 0.150566 -0.335866
5.070000 -7.977513 175.271607 -0.000000 0.354610 0.472011 -0.101669 132.323032 142.497352 -0.000000 0.175531 0.155767 -0.335655
5.075000 -2.427401 190.905695 -0.000000 0.361709 0.467237 -0.101227 113.537495 75.117553 -0.000000 0.166859 0.161775 -0.335434
5.080000 1.583461 207.595706 -0.000000 0.368078 0.461811 -0.101030 96.665342 14.343628 -0.000000 0.158469 0.168562 -0.335216
5.085000 4.293342 226.488721 -0.000000 0.373931 0.455778 -0.100871 81.242524 -38.844325 -0.000000 0.150223 0.175853 -0.335017
5.090000 5.643128 248.681191 -0.000000 0.379213 0.449199 -0.100707 66.884856 -82.818367 -0.000000 0.142642 0.183686 -0.334739
5.095000 5.970894 275.075197 -0.000000 0.383972 0.441264 -0.100311 53.570125 -116.082654 -0.000000 0.135785 0.191415 -0.334620
5.100000 4.923626 306.164440 -0.000000 0.388278 0.433100 -0.099908 42.031259 -137.739054 -0.000000 0.129690 0.199063 -0.334558
5.105000 2.726220 341.790631 -0.000000 0.391863 0.424497 -0.099558 33.045891 -148.241206 -0.000000 0.124176 0.206752 -0.334553
5.110000 -0.599974 381.191659 -0.000000 0.394839 0.415495 -0.099109 27.369442 -149.146754 -0.000000 0.119302 0.214508 -0.334400
5.115000 -4.277231 423.260797 -0.000000 0.397679 0.405872 -0.098592 25.188519 -142.800336 -0.000000 0.114849 0.222532 -0.334184
5.120000 -8.522896 466.814614 -0.000000 0.400047 0.395731 -0.098019 26.743789 -131.759357 -0.000000 0.110865 0.230904 -0.333953
5.125000 -12.298894 510.770674 -0.000000 0.402081 0.385121 -0.097564 31.480817 -118.573772 -0.000000 0.107391 0.240207 -0.334009
5.130000 -16.233680 554.168154 -0.000000 0.403726 0.374418 -0.097799 38.885327 -105.234775 -0.000000 0.104480 0.249984 -0.334233
5.135000 -19.957750 596.246737 -0.000000 0.404999 0.363613 -0.098183 47.834577 -93.067694 -0.000000 0.102111 0.260094 -0.334278
5.140000 -23.345597 636.472399 -0.000000 0.405686 0.352595 -0.098300 57.200776 -82.665845 -0.000000 0.100523 0.270281 -0.334471
5.145000 -25.733690 674.625551 -0.000000 0.405884 0.341424 -0.097996 65.996988 -74.161772 -0.000000 0.099562 0.280554 -0.334652
5.150000 -27.336214 710.766187 -0.000000 0.405581 0.330265 -0.098086 73.695730 -67.361140 -0.000000 0.099327 0.290773 -0.334803
5.155000 -27.874299 745.221574 -0.000000 0.404838 0.319206 -0.097529 80.013761 -62.074083 -0.000000 0.099735 0.300998 -0.334882
5.160000 -26.248093 778.482379 -0.000000 0.403487 0.307973 -0.097777 84.794774 -58.259530 -0.000000 0.100846 0.311280 -0.334966
5.165000 -21.818166 811.022282 -0.000000 0.401754 0.296724 -0.097427 87.989553 -55.889140 -0.000000 0.102674 0.321823 -0.335172
5.170000 -15.733798 843.190593 -0.000000 0.399565 0.285599 -0.097187 89.662951 -54.744909 -0.000000 0.105134 0.332187 -0.335178
5.175000 -7.202869 875.292094 -0.000000 0.396878 0.274585 -0.096895 89.782307 -54.762351 -0.000000 0.108178 0.342543 -0.335149
5.180000 2.538851 907.479439 -0.000000 0.393653 0.263957 -0.096673 88.537007 -55.617977 -0.000000 0.111883 0.352618 -0.335137
5.185000 14.488280 939.794119 -0.000000 0.389955 0.253550 -0.096634 86.015036 -57.244202 -0.000000 0.116190 0.362576 -0.335210
5.190000 27.657808 972.188228 -0.000000 0.385803 0.243579 -0.096533 82.376106 -59.428003 -0.000000 0.121089 0.372265 -0.335216
5.195000 42.733332 1004.525419 -0.000000 0.381096 0.233850 -0.096449 77.597972 -62.103055 -0.000000 0.126508 0.381666 -0.335306
5.200000 59.698342 1036.566796 -0.000000 0.375856 0.224440 -0.096351 71.643342 -65.063130 -0.000000 0.132472 0.390771 -0.335460
5.205000 78.847010 1067.899993 -0.000000 0.370148 0.215303 -0.096303 64.425710 -67.989486 -0.000000 0.138996 0.399585 -0.335670
5.210000 99.129762 1098.024589 -0.000000 0.364053 0.206647 -0.096301 55.960192 -70.258244 -0.000000 0.145979 0.408028 -0.335824
5.215000 122.098231 1125.999988 -0.000000 0.357493 0.198429 -0.096375 46.187860 -71.095483 -0.000000 0.153519 0.416416 -0.336049
5.220000 145.741649 1150.980271 -0.000000 0.350541 0.190726 -0.096373 35.463779 -69.295901 -0.000000 0.161425 0.424268 -0.336316
5.225000 170.773538 1171.624622 -0.000000 0.343231 0.183396 -0.096340 24.236430 -63.683161 -0.000000 0.169696 0.431747 -0.336527
5.230000 196.061105 1186.590454 -0.000000 0.335634 0.176779 -0.096267 13.333708 -53.128980 -0.000000 0.178309 0.438840 -0.336613
5.235000 220.903231 1194.347420 -0.000000 0.327746 0.170720 -0.096161 3.715492 -36.844244 -0.000000 0.187076 0.445426 -0.336618
5.240000 244.435522 1193.380937 -0.000000 0.319664 0.165446 -0.096060 -3.660717 -14.529076 -0.000000 0.196100 0.451404 -0.336638
5.245000 266.496830 1182.138467 -0.000000 0.311466 0.160756 -0.095981 -8.015071 13.425364 -0.000000 0.205452 0.456677 -0.336459
5.250000 287.577915 1159.084039 -0.000000 0.303220 0.156498 -0.095968 -8.821056 45.733711 -0.000000 0.215483 0.461160 -0.337172
5.255000 302.631306 1124.406517 -0.000000 0.294980 0.153075 -0.095922 -6.276070 80.182839 -0.000000 0.224996 0.465137 -0.336656
5.260000 313.925373 1077.002810 -0.000000 0.286683 0.150033 -0.095807 -0.949483 114.109744 -0.000000 0.234678 0.468504 -0.336812
5.265000 319.376584 1017.487242 -0.000000 0.278385 0.147490 -0.095759 5.848766 144.946292 -0.000000 0.244095 0.471715 -0.336956
5.270000 319.226906 946.620457 -0.000000 0.270185 0.145498 -0.095641 12.753593 170.942118 -0.000000 0.253597 0.474711 -0.337133
5.275000 313.098438 866.266928 -0.000000 0.262024 0.144031 -0.095608 18.502610 191.513389 -0.000000 0.263070 0.477431 -0.337293
5.280000 301.657721 778.882900 -0.000000 0.253927 0.143060 -0.095388 22.478731 207.024960 -0.000000 0.272724 0.479427 -0.337489
5.285000 284.250912 688.295156 -0.000000 0.245868 0.143013 -0.095039 24.112690 218.355492 -0.000000 0.281839 0.480573 -0.337882
5.290000 263.237898 597.730865 -0.000000 0.237579 0.143752 -0.094800 23.821733 226.389438 -0.000000 0.290524 0.481070 -0.338253
5.295000 241.291026 510.159455 -0.000000 0.228808 0.145148 -0.094818 22.386842 231.959149 -0.000000 0.299159 0.481033 -0.338565
5.300000 219.550741 428.404225 -0.000000 0.219733 0.147397 -0.094825 20.055585 235.978174 -0.000000 0.307524 0.480419 -0.338668
5.305000 199.850660 353.476579 -0.000000 0.210285 0.150597 -0.094995 17.417578 239.358336 -0.000000 0.315584 0.479033 -0.338857
5.310000 183.453653 284.794807 -0.000000 0.200048 0.154553 -0.096065 15.101086 243.005893 -0.000000 0.323252 0.476937 -0.338965
5.315000 169.329318 221.585340 -0.000000 0.190679 0.159198 -0.096231 12.175375 247.865345 -0.000000 0.330400 0.474235 -0.339063
5.320000 157.981610 161.103277 -0.000000 0.181540 0.164686 -0.096421 9.257005 254.701367 -0.000000 0.337119 0.470896 -0.339225
5.325000 148.422525 101.123185 -0.000000 0.172691 0.170737 -0.096535 6.344694 264.241931 -0.000000 0.343566 0.466552 -0.339947
5.330000 138.990956 40.443841 -0.000000 0.164274 0.177519 -0.096566 2.726030 277.063605 -0.000000 0.349392 0.461765 -0.340072
5.335000 128.202872 -21.472248 -0.000000 0.156155 0.184836 -0.096424 -1.617929 293.421985 -0.000000 0.354912 0.456283 -0.340474
5.340000 114.564483 -83.532111 -0.000000 0.148603 0.192770 -0.096850 -7.380356 313.281322 -0.000000 0.359994 0.450262 -0.341164
5.345000 97.012963 -143.582654 -0.000000 0.141845 0.200903 -0.096823 -14.786591 336.447715 -0.000000 0.364851 0.443108 -0.341171
5.350000 75.622669 -198.337109 -0.000000 0.135964 0.209201 -0.096718 -24.731679 362.571851 -0.000000 0.369447 0.435759 -0.340936
5.355000 50.743541 -244.703902 -0.000000 0.130533 0.217385 -0.097177 -36.235837 391.195321 -0.000000 0.373875 0.427346 -0.340950
5.360000 24.123247 -279.815807 -0.000000 0.125506 0.225707 -0.097386 -49.091438 421.594092 -0.000000 0.377781 0.418315 -0.341189
5.365000 -1.967123 -302.043872 -0.000000 0.121235 0.234177 -0.097416 -62.532518 452.871879 -0.000000 0.381428 0.408782 -0.341356
5.370000 -25.109279 -311.186346 -0.000000 0.117540 0.242922 -0.097380 -75.561448 484.071079 -0.000000 0.384687 0.399019 -0.341152
5.375000 -43.428310 -308.316604 -0.000000 0.114271 0.251890 -0.097295 -86.858175 514.431613 -0.000000 0.387462 0.388791 -0.341222
5.380000 -55.883782 -295.375419 -0.000000 0.111560 0.261194 -0.097304 -94.885376 543.581349 -0.000000 0.389900 0.377781 -0.341374
5.385000 -60.712778 -275.111311 -0.000000 0.109295 0.270901 -0.097336 -101.097980 571.007018 -0.000000 0.392023 0.367281 -0.341273
5.390000 -58.593014 -250.128220 -0.000000 0.107463 0.280922 -0.097398 -104.399410 596.982304 -0.000000 0.393736 0.356507 -0.340940
